HIERARCHY
ROOT Hips
{
  OFFSET 0.000000 0.000000 0.000000
  CHANNELS 6 Xposition Yposition Zposition Xrotation Yrotation Zrotation
  JOINT Spine
  {
    OFFSET -0.253123 22.424799 -5.826726
    CHANNELS 3 Xrotation Yrotation Zrotation
    JOINT Chest
    {
      OFFSET -0.253123 22.424799 -5.826726
      CHANNELS 3 Xrotation Yrotation Zrotation
      JOINT Neck
      {
        OFFSET -0.414624 8.444968 -3.906957
        CHANNELS 3 Xrotation Yrotation Zrotation
        JOINT Head
        {
          OFFSET 1.548801 7.462384 -7.473342
          CHANNELS 3 Xrotation Yrotation Zrotation
          End Site
          {
            OFFSET 0.464640 2.238715 -2.242003
          }
        }
      }
      JOINT LeftShoulder
      {
        OFFSET 13.662297 0.510576 9.925918
        CHANNELS 3 Xrotation Yrotation Zrotation
        JOINT LeftArm
        {
          OFFSET 2.909997 -23.619063 6.772514
          CHANNELS 3 Xrotation Yrotation Zrotation
          JOINT LeftForeArm
          {
            OFFSET 10.595922 -20.254781 -9.669280
            CHANNELS 3 Xrotation Yrotation Zrotation
            JOINT LeftHand
            {
              OFFSET 1.581981 -5.350896 -2.487129
              CHANNELS 3 Xrotation Yrotation Zrotation
              End Site
              {
                OFFSET 0.474594 -1.605269 -0.746139
              }
            }
          }
        }
      }
      JOINT RightShoulder
      {
        OFFSET -13.662297 -0.510576 -9.925918
        CHANNELS 3 Xrotation Yrotation Zrotation
        JOINT RightArm
        {
          OFFSET -4.505415 -25.725713 1.183158
          CHANNELS 3 Xrotation Yrotation Zrotation
          JOINT RightForeArm
          {
            OFFSET 1.284607 -25.866169 -6.340377
            CHANNELS 3 Xrotation Yrotation Zrotation
            JOINT RightHand
            {
              OFFSET 1.107533 -5.748622 -2.637041
              CHANNELS 3 Xrotation Yrotation Zrotation
              End Site
              {
                OFFSET 0.332260 -1.724587 -0.791112
              }
            }
          }
        }
      }
    }
  }
  JOINT LeftUpLeg
  {
    OFFSET 7.835943 -0.406958 8.407790
    CHANNELS 3 Xrotation Yrotation Zrotation
    JOINT LeftLeg
    {
      OFFSET -10.219194 -43.459642 4.926588
      CHANNELS 3 Xrotation Yrotation Zrotation
      JOINT LeftFoot
      {
        OFFSET -2.855798 -40.158022 7.920695
        CHANNELS 3 Xrotation Yrotation Zrotation
        End Site
        {
          OFFSET -0.856739 -12.047407 2.376208
        }
      }
    }
  }
  JOINT RightUpLeg
  {
    OFFSET -7.835943 0.406958 -8.407790
    CHANNELS 3 Xrotation Yrotation Zrotation
    JOINT RightLeg
    {
      OFFSET 16.076752 -38.072424 -7.886398
      CHANNELS 3 Xrotation Yrotation Zrotation
      JOINT RightFoot
      {
        OFFSET 13.657580 -42.081873 -7.100000
        CHANNELS 3 Xrotation Yrotation Zrotation
        End Site
        {
          OFFSET 4.097274 -12.624562 -2.130000
        }
      }
    }
  }
}
MOTION
Frames: 15
Frame Time: 0.083333
143.666570 62.682482 -83.711467 1.656655 0.169143 0.614946 0.000000 0.000000 0.000000 -2.770605 -0.197411 -0.629876 -0.475302 1.821716 1.286675 5.000000 0.000000 0.000000 3.370030 -0.096502 -1.838195 -2.586756 1.400424 -0.674152 78.636413 -26.031944 35.010319 0.000000 0.000000 0.000000 -6.657536 1.504408 1.261450 11.435703 -1.554643 -1.031283 92.435721 5.742767 11.837159 0.000000 0.000000 0.000000 -2.591235 0.028518 -0.944558 2.654596 0.233415 3.176943 0.000000 0.000000 0.000000 -2.096909 0.291004 -3.221419 -5.544005 -1.989675 -2.884903 0.000000 0.000000 0.000000
144.520536 62.674911 -83.976871 1.709395 0.138515 0.490655 0.000000 0.000000 0.000000 -2.478182 -0.192329 -0.573684 -0.664458 1.809219 1.374746 5.000000 0.000000 0.000000 5.317279 -0.097471 -2.790160 -5.028711 1.266879 -0.018931 80.872580 -23.298500 33.421772 0.000000 0.000000 0.000000 -6.214498 1.458445 1.295087 10.625000 -1.474102 -1.354559 92.372939 5.377001 11.888224 0.000000 0.000000 0.000000 -0.914610 0.061449 -0.646605 0.946685 -0.090759 0.452372 0.000000 0.000000 0.000000 -0.675483 0.301284 -3.711612 -6.342408 -2.287210 -4.399465 0.000000 0.000000 0.000000
144.856462 62.633777 -83.949160 0.024881 0.108102 0.414414 0.000000 0.000000 0.000000 -0.983050 -0.159796 -0.438106 -0.593464 1.862061 1.347665 5.000000 0.000000 0.000000 5.939344 -0.207315 -3.488472 -6.649447 1.163335 0.420487 80.768677 -23.124389 33.422264 0.000000 0.000000 0.000000 -6.428990 1.523715 1.266809 10.846838 -1.554877 -1.350218 91.923696 3.792201 12.255606 0.000000 0.000000 0.000000 3.516265 -0.210516 2.103355 -5.279075 0.145345 -5.738311 0.000000 0.000000 0.000000 1.717278 0.435691 -4.702074 -7.421655 -3.028473 -5.332076 0.000000 0.000000 0.000000
145.494802 62.378163 -85.008843 -2.526707 0.090210 0.420664 0.000000 0.000000 0.000000 1.405321 -0.145710 -0.398628 -0.465750 1.903598 1.343365 5.000000 0.000000 0.000000 5.919551 -0.360678 -4.015826 -7.385450 1.015663 0.990102 46.606153 -10.251287 28.108819 0.000000 0.000000 0.000000 -5.618043 1.309641 1.014742 10.049942 -1.341286 -1.195615 91.762341 3.204251 12.351233 0.000000 0.000000 0.000000 11.604514 -1.734574 7.515403 -17.846978 3.042038 -13.036180 0.000000 0.000000 0.000000 3.773057 1.294920 -6.933152 -10.710761 -5.735368 -2.306333 0.000000 0.000000 0.000000
146.570312 61.822157 -90.121348 -3.830990 0.056460 0.337865 0.000000 0.000000 0.000000 2.762987 -0.078893 -0.240243 -0.398924 1.903591 1.337507 5.000000 0.000000 0.000000 5.211337 -0.545952 -4.245407 -6.831684 1.082414 1.301979 46.127891 -10.560921 28.458855 0.000000 0.000000 0.000000 -5.907585 1.294104 0.841947 10.217357 -1.365427 -1.067681 91.928656 3.811799 12.199531 0.000000 0.000000 0.000000 18.894475 -3.962404 10.217497 -26.986136 9.195298 -7.197210 0.000000 0.000000 0.000000 2.431258 1.177879 -8.847124 -9.784779 -5.942328 0.309245 0.000000 0.000000 0.000000
147.620924 61.218970 -96.376590 -3.602120 0.027395 0.232804 0.000000 0.000000 0.000000 2.650391 0.005070 -0.048936 -0.324284 1.878482 1.325019 5.000000 0.000000 0.000000 4.702181 -0.651943 -4.295020 -6.863671 1.094756 1.301426 45.080568 -10.938244 29.091804 0.000000 0.000000 0.000000 -6.135682 1.353639 1.103681 10.643378 -1.506245 -1.328861 92.262771 5.139784 11.982714 0.000000 0.000000 0.000000 17.150081 -3.371223 10.466584 -21.970151 9.459878 -2.089954 0.000000 0.000000 0.000000 -1.507558 -0.584421 -10.826834 -6.633535 -4.482572 4.789501 0.000000 0.000000 0.000000
148.340266 60.905064 -99.748699 -3.735209 0.042651 0.287129 0.000000 0.000000 0.000000 2.790993 0.008231 -0.058568 -0.234615 1.861114 1.314105 5.000000 0.000000 0.000000 4.371954 -0.849829 -4.650590 -7.683165 1.009136 1.474760 46.696820 -9.541136 27.745010 0.000000 0.000000 0.000000 -6.252463 1.447683 1.605604 11.299354 -1.777548 -1.804116 90.816147 0.194078 13.044365 0.000000 0.000000 0.000000 15.842835 -2.782784 9.972915 -11.229939 6.829688 0.688219 0.000000 0.000000 0.000000 -3.262670 -1.638982 -13.186963 -9.210175 -6.542795 8.110020 0.000000 0.000000 0.000000
149.287985 60.667949 -100.219652 -4.565464 0.106141 0.520708 0.000000 0.000000 0.000000 3.435814 -0.028762 -0.184510 -0.101508 1.854326 1.229078 5.000000 0.000000 0.000000 4.587277 -1.043703 -5.382196 -8.288994 1.095498 1.825085 83.782356 -19.448881 31.130650 0.000000 0.000000 0.000000 -6.199860 1.477317 2.093341 11.686950 -2.067817 -2.029812 87.118617 -9.800018 15.597608 0.000000 0.000000 0.000000 16.754546 -3.315578 8.638343 -5.879316 5.021704 1.826391 0.000000 0.000000 0.000000 0.310946 0.419570 -15.994352 -14.472878 -11.598783 11.773474 0.000000 0.000000 0.000000
150.495672 60.485320 -101.603257 -4.772553 0.257431 1.023546 0.000000 0.000000 0.000000 3.592282 -0.163079 -0.575324 -0.074995 1.781436 1.098477 5.000000 0.000000 0.000000 4.509888 -1.309340 -6.233901 -8.811333 1.233099 2.244317 0.000000 0.000000 0.000000 0.000000 0.000000 0.000000 -6.406348 1.554556 2.723573 12.344367 -2.475913 -2.326784 85.307094 -13.882624 16.851123 0.000000 0.000000 0.000000 18.417768 -4.069700 6.185646 -8.253046 5.603584 4.662408 0.000000 0.000000 0.000000 -0.208619 0.455245 -19.044022 -12.672374 -11.680434 15.564611 0.000000 0.000000 0.000000
151.635718 60.430618 -103.044211 -4.818158 0.375219 1.408286 0.000000 0.000000 0.000000 3.670489 -0.248399 -0.838117 -0.106440 1.744062 1.003932 5.000000 0.000000 0.000000 4.302800 -1.560332 -6.803761 -9.160228 1.251429 2.603569 0.000000 0.000000 0.000000 0.000000 0.000000 0.000000 -6.451659 1.619162 3.170268 12.497103 -2.766041 -2.724266 84.590439 -15.144274 17.347365 0.000000 0.000000 0.000000 19.556824 -4.441388 2.312585 -13.507436 6.954079 11.163665 0.000000 0.000000 0.000000 -1.588691 -0.492183 -20.501988 -10.514738 -10.251988 16.062691 0.000000 0.000000 0.000000
152.630307 60.609517 -103.037911 -5.272126 0.459503 1.675950 0.000000 0.000000 0.000000 3.963459 -0.294377 -0.959733 -0.114314 1.757787 0.886763 5.000000 0.000000 0.000000 4.707820 -1.586514 -6.934964 -10.075475 0.971341 2.745443 53.470640 -2.750093 21.492154 0.000000 0.000000 0.000000 -6.450182 1.697349 3.589999 12.424303 -2.959287 -3.236786 86.670682 -11.317488 15.984384 0.000000 0.000000 0.000000 18.998636 -4.117258 0.129209 -11.717018 6.048255 13.631254 0.000000 0.000000 0.000000 -2.545719 -1.805506 -20.382832 -8.519459 -8.048946 13.156244 0.000000 0.000000 0.000000
153.310047 60.869612 -102.213272 -6.302334 0.531360 1.887712 0.000000 0.000000 0.000000 4.784226 -0.372709 -1.079821 -0.146298 1.805663 0.810950 5.000000 0.000000 0.000000 5.613144 -1.382744 -6.595237 -10.918853 0.605187 2.512196 50.618786 -5.901715 24.273254 0.000000 0.000000 0.000000 -6.176176 1.674222 3.847200 11.804450 -2.920376 -3.785778 89.565991 -3.870262 13.932741 0.000000 0.000000 0.000000 19.922218 -4.179296 -0.153621 -10.862295 5.648305 12.996822 0.000000 0.000000 0.000000 -0.485729 -1.339345 -20.096474 -10.193187 -9.360645 10.525533 0.000000 0.000000 0.000000
153.738967 61.273534 -101.782192 -7.321006 0.564656 1.970602 0.000000 0.000000 0.000000 5.708526 -0.420250 -1.100565 -0.181176 1.837758 0.772314 5.000000 0.000000 0.000000 5.811571 -1.096595 -5.640642 -10.289308 0.437359 2.034955 64.501009 -31.592014 45.594117 0.000000 0.000000 0.000000 -6.214167 1.668156 3.823735 11.293372 -2.751795 -4.193921 92.107226 4.482609 12.051453 0.000000 0.000000 0.000000 20.983114 -4.390134 0.505218 -11.359082 5.697240 11.288274 0.000000 0.000000 0.000000 3.368959 0.502841 -18.918350 -16.736680 -14.175472 6.674753 0.000000 0.000000 0.000000
154.397704 61.466462 -102.027478 -7.570264 0.554219 1.933462 0.000000 0.000000 0.000000 6.021725 -0.421786 -1.073613 -0.185689 1.826715 0.788637 5.000000 0.000000 0.000000 5.529452 -0.734753 -4.086508 -9.401582 0.207264 1.128797 54.234596 -34.986006 53.562161 0.000000 0.000000 0.000000 -6.394492 1.657469 3.528305 11.089991 -2.546093 -4.323587 93.436257 9.692825 11.050154 0.000000 0.000000 0.000000 20.577208 -4.242322 0.277084 -11.233270 5.542366 11.285601 0.000000 0.000000 0.000000 8.114299 2.960378 -17.463416 -27.861258 -22.315553 2.653731 0.000000 0.000000 0.000000
155.405719 61.263237 -101.751645 -7.538894 0.535530 1.877796 0.000000 0.000000 0.000000 6.078893 -0.404724 -1.033989 -0.186729 1.817839 0.816386 5.000000 0.000000 0.000000 5.634644 -0.416776 -2.857451 -9.440064 -0.001551 0.074696 47.804557 -35.676329 58.548518 0.000000 0.000000 0.000000 -6.505936 1.598013 2.773388 11.065889 -2.237387 -3.970014 95.791155 21.068170 9.050338 0.000000 0.000000 0.000000 20.325690 -4.104940 0.463738 -10.392512 5.057592 9.441195 0.000000 0.000000 0.000000 7.033957 2.286127 -17.544052 -27.172853 -21.898952 1.602592 0.000000 0.000000 0.000000
